<?xml version="1.0" encoding="UTF-8"?>
<svg id="Calque_1" data-name="Calque 1" xmlns="http://www.w3.org/2000/svg" version="1.1" viewBox="0 0 250 250">
  <defs>
    <style>
      .cls-1 {
        fill: #0070b1;
        stroke-width: 0px;
      }
    </style>
  </defs>
  <path class="cls-1" d="M-734.4-363.7h102.1c16.3,0,29.6,13.2,29.6,29.6h0c0,16.3-13.2,29.6-29.6,29.6h-102.1v-59.1h0Z"/>
  <g>
    <g>
      <path class="cls-1" d="M87.4,169c24.3,0,44-19.7,44-44s-19.7-44-44-44-44,19.7-44,44,19.7,44,44,44ZM87.4,93.8c17.2,0,31.1,14,31.1,31.2s-13.9,31.2-31.1,31.2-31.2-14-31.2-31.2,13.9-31.2,31.2-31.2Z"/>
      <path class="cls-1" d="M16.8,159.3l32.8-56.8c1.8-3.1,5.8-4.2,8.8-2.4h0c3.1,1.8,4.2,5.8,2.4,8.8l-32.8,56.8c-1.8,3.1-5.8,4.2-8.8,2.4h0c-3.1-1.8-4.2-5.8-2.4-8.8Z"/>
    </g>
    <path class="cls-1" d="M162.6,81c-24.3,0-44,19.7-44,44s19.7,44,44,44,44-19.7,44-44-19.7-44-44-44ZM162.6,156.2c-17.2,0-31.1-14-31.1-31.2s13.9-31.2,31.1-31.2,31.2,13.9,31.2,31.2-13.9,31.2-31.2,31.2Z"/>
    <path class="cls-1" d="M233.2,90.7l-32.8,56.8c-1.8,3.1-5.8,4.2-8.8,2.4h0c-3.1-1.8-4.2-5.8-2.4-8.8l32.8-56.8c1.8-3.1,5.8-4.2,8.8-2.4h0c3.1,1.8,4.2,5.8,2.4,8.8Z"/>
  </g>
</svg>